<svg width="19" height="11" viewBox="0 0 19 11" fill="none" xmlns="http://www.w3.org/2000/svg">
<path d="M14.8897 1.43493C9.71435 -1.09064 2.78495 0.453607 0.162332 4.98763L0 5.26831C0.121114 5.42026 1.0694 7.61784 4.11029 9.1017C5.7344 9.89426 7.59812 10.3132 9.5 10.3132C11.4019 10.3132 13.2656 9.89426 14.8897 9.1017C16.6151 8.25977 17.9802 7.03125 18.8376 5.54899L19 5.26831C18.8788 5.11641 17.9306 2.91879 14.8897 1.43493ZM13.4238 5.26831C13.4238 7.43189 11.6636 9.19209 9.5 9.19209C7.33639 9.19209 5.57622 7.43189 5.57622 5.26831C5.57622 3.10474 7.33639 1.34453 9.5 1.34453C11.6636 1.34453 13.4238 3.10474 13.4238 5.26831ZM1.30471 5.26831C2.2512 3.80631 3.80364 2.66654 5.65966 2.00077C4.05342 3.88568 4.05315 6.65057 5.65966 8.53593C3.80364 7.87008 2.2512 6.73031 1.30471 5.26831ZM13.3403 8.53593C14.9465 6.65102 14.9468 3.88609 13.3403 2.00077C15.1963 2.66654 16.7487 3.80631 17.6952 5.26831C16.7488 6.73031 15.1963 7.87008 13.3403 8.53593Z" fill="#CBD1CD"/>
<path d="M9.49997 7.51045C10.7363 7.51045 11.7421 6.50461 11.7421 5.26828C11.7421 4.03196 10.7363 3.02612 9.49997 3.02612C8.26365 3.02612 7.25781 4.03196 7.25781 5.26828C7.25781 6.50461 8.26365 7.51045 9.49997 7.51045ZM9.49997 4.1472C10.1181 4.1472 10.6211 4.65012 10.6211 5.26828C10.6211 5.88645 10.1181 6.38936 9.49997 6.38936C8.88181 6.38936 8.37889 5.88645 8.37889 5.26828C8.37889 4.65012 8.88181 4.1472 9.49997 4.1472Z" fill="#CBD1CD"/>
</svg>
