<svg width="17" height="11" viewBox="0 0 17 11" fill="none" xmlns="http://www.w3.org/2000/svg">
<path d="M13.6597 9.20411C13.9321 9.20411 14.1529 9.0031 14.1529 8.75513C14.1529 8.50717 13.9321 8.30615 13.6597 8.30615C13.3874 8.30615 13.1666 8.50717 13.1666 8.75513C13.1666 9.0031 13.3874 9.20411 13.6597 9.20411Z" fill="#2EBDEE"/>
<path d="M16.1253 1.34694C16.1253 0.989708 15.9695 0.647109 15.692 0.394509C15.4146 0.141909 15.0383 0 14.646 0H1.82482C1.43247 0 1.05619 0.141909 0.778754 0.394509C0.50132 0.647109 0.345459 0.989708 0.345459 1.34694L0.345459 2.69388C0.345447 2.76959 0.366463 2.84407 0.406553 2.9104C0.446644 2.97674 0.504507 3.03276 0.57476 3.07327L7.97157 7.33857C8.05049 7.38407 8.14198 7.40823 8.23539 7.40823C8.3288 7.40823 8.42029 7.38407 8.49921 7.33857L15.1391 3.50878V9.65306C15.1391 9.77214 15.0871 9.88634 14.9947 9.97054C14.9022 10.0547 14.7767 10.102 14.646 10.102H1.82482C1.69404 10.102 1.56861 10.0547 1.47613 9.97054C1.38365 9.88634 1.3317 9.77214 1.3317 9.65306V4.71429C1.3317 4.59521 1.27975 4.48101 1.18727 4.39681C1.09479 4.31261 0.969364 4.26531 0.83858 4.26531C0.707796 4.26531 0.582369 4.31261 0.489891 4.39681C0.397413 4.48101 0.345459 4.59521 0.345459 4.71429V9.65306C0.345459 10.0103 0.50132 10.3529 0.778754 10.6055C1.05619 10.8581 1.43247 11 1.82482 11H14.646C15.0383 11 15.4146 10.8581 15.692 10.6055C15.9695 10.3529 16.1253 10.0103 16.1253 9.65306V1.34694ZM8.23539 6.42714L1.3317 2.44694V1.34694C1.3317 1.22786 1.38365 1.11366 1.47613 1.02946C1.56861 0.945262 1.69404 0.897959 1.82482 0.897959H14.646C14.7767 0.897959 14.9022 0.945262 14.9947 1.02946C15.0871 1.11366 15.1391 1.22786 15.1391 1.34694V2.44694L8.23539 6.42714Z" fill="#2EBDEE"/>
<path d="M11.6873 9.20411C11.8181 9.20411 11.9436 9.15681 12.036 9.07261C12.1285 8.98841 12.1805 8.87421 12.1805 8.75513C12.1805 8.63606 12.1285 8.52186 12.036 8.43766C11.9436 8.35346 11.8181 8.30615 11.6873 8.30615H8.97518C8.84439 8.30615 8.71897 8.35346 8.62649 8.43766C8.53401 8.52186 8.48206 8.63606 8.48206 8.75513C8.48206 8.87421 8.53401 8.98841 8.62649 9.07261C8.71897 9.15681 8.84439 9.20411 8.97518 9.20411H11.6873Z" fill="#2EBDEE"/>
</svg>
