<svg width="14" height="17" viewBox="0 0 14 17" fill="none" xmlns="http://www.w3.org/2000/svg">
<path d="M6.45901 0.00723206L6.67857 0C8.44904 0 9.89769 1.40289 10.0108 3.17645L10.0179 3.4V4.76H11.3536C12.4601 4.76 13.3571 5.67334 13.3571 6.8V14.96C13.3571 16.0867 12.4601 17 11.3536 17H2.00357C0.897029 17 0 16.0867 0 14.96V6.8C0 5.67334 0.897029 4.76 2.00357 4.76H3.33929V3.4C3.33929 1.59734 4.71712 0.122347 6.45901 0.00723206ZM11.3536 6.12H2.00357C1.63472 6.12 1.33571 6.42445 1.33571 6.8V14.96C1.33571 15.3356 1.63472 15.64 2.00357 15.64H11.3536C11.7224 15.64 12.0214 15.3356 12.0214 14.96V6.8C12.0214 6.42445 11.7224 6.12 11.3536 6.12ZM6.67857 9.52C7.41627 9.52 8.01429 10.1289 8.01429 10.88C8.01429 11.6311 7.41627 12.24 6.67857 12.24C5.94088 12.24 5.34286 11.6311 5.34286 10.88C5.34286 10.1289 5.94088 9.52 6.67857 9.52ZM6.87153 1.36934L6.67857 1.36C5.63712 1.36 4.78126 2.16905 4.68417 3.20353L4.675 3.4V4.76H8.68214V3.4C8.68214 2.33961 7.88754 1.46819 6.87153 1.36934Z" fill="#2EBDEE"/>
</svg>
