<svg width="17" height="15" viewBox="0 0 17 15" fill="none" xmlns="http://www.w3.org/2000/svg">
<path d="M8.3348 0C3.82102 0 0.148926 3.34339 0.148926 7.45312C0.148926 11.5629 3.82102 14.9062 8.3348 14.9062C12.8486 14.9062 16.5207 11.5629 16.5207 7.45312C16.5207 3.34339 12.8486 0 8.3348 0ZM8.3348 13.4637C6.59385 13.4637 5.01284 12.8424 3.83211 11.8363C4.04527 11.4756 4.33453 11.1479 4.69075 10.8623C5.59914 10.1314 6.91416 9.68426 8.3348 9.68426C10.0142 9.68426 11.5458 10.3094 12.4277 11.2903C12.588 11.4619 12.718 11.6482 12.8323 11.8406C11.6521 12.8441 10.0732 13.4637 8.3348 13.4637ZM13.904 10.6667C12.765 9.18272 10.6794 8.24172 8.3348 8.24172C5.98769 8.24172 3.90063 9.18469 2.77 10.6733C2.11703 9.7412 1.73329 8.63825 1.73329 7.45312C1.73329 4.13885 4.69469 1.44254 8.3348 1.44254C11.9749 1.44254 14.9363 4.13885 14.9363 7.45312C14.9363 8.63552 14.5542 9.736 13.904 10.6667Z" fill="#2EBDEE"/>
<path d="M8.33484 2.65686C6.88612 2.65686 5.70764 3.72985 5.70764 5.04889C5.70764 6.36792 6.88612 7.44091 8.33484 7.44091C9.78356 7.44091 10.962 6.36792 10.962 5.04889C10.962 3.72985 9.78356 2.65686 8.33484 2.65686ZM8.33484 5.99837C7.75978 5.99837 7.292 5.57246 7.292 5.04889C7.292 4.52531 7.75978 4.0994 8.33484 4.0994C8.90989 4.0994 9.37767 4.52531 9.37767 5.04889C9.37767 5.57246 8.90989 5.99837 8.33484 5.99837Z" fill="#2EBDEE"/>
</svg>
