<svg width="19" height="17" viewBox="0 0 19 17" fill="none" xmlns="http://www.w3.org/2000/svg">
<path d="M14.8897 4.43493C9.71435 1.90936 2.78495 3.45361 0.162332 7.98763L0 8.26831C0.121114 8.42026 1.0694 10.6178 4.11029 12.1017C5.7344 12.8943 7.59812 13.3132 9.5 13.3132C11.4019 13.3132 13.2656 12.8943 14.8897 12.1017C16.6151 11.2598 17.9802 10.0312 18.8376 8.54899L19 8.26831C18.8788 8.11641 17.9306 5.91879 14.8897 4.43493ZM13.4238 8.26831C13.4238 10.4319 11.6636 12.1921 9.5 12.1921C7.33639 12.1921 5.57622 10.4319 5.57622 8.26831C5.57622 6.10474 7.33639 4.34453 9.5 4.34453C11.6636 4.34453 13.4238 6.10474 13.4238 8.26831ZM1.30471 8.26831C2.2512 6.80631 3.80364 5.66654 5.65966 5.00077C4.05342 6.88568 4.05315 9.65057 5.65966 11.5359C3.80364 10.8701 2.2512 9.73031 1.30471 8.26831ZM13.3403 11.5359C14.9465 9.65102 14.9468 6.88609 13.3403 5.00077C15.1963 5.66654 16.7487 6.80631 17.6952 8.26831C16.7488 9.73031 15.1963 10.8701 13.3403 11.5359Z" fill="#2EBDEE"/>
<path d="M9.49997 10.5104C10.7363 10.5104 11.7421 9.50461 11.7421 8.26828C11.7421 7.03196 10.7363 6.02612 9.49997 6.02612C8.26365 6.02612 7.25781 7.03196 7.25781 8.26828C7.25781 9.50461 8.26365 10.5104 9.49997 10.5104ZM9.49997 7.1472C10.1181 7.1472 10.6211 7.65012 10.6211 8.26828C10.6211 8.88645 10.1181 9.38936 9.49997 9.38936C8.88181 9.38936 8.37889 8.88645 8.37889 8.26828C8.37889 7.65012 8.88181 7.1472 9.49997 7.1472Z" fill="#2EBDEE"/>
<path d="M11.1953 1.65356L11.5216 0.00394828L12.6214 0.221509L12.2951 1.87112L11.1953 1.65356Z" fill="#2EBDEE"/>
<path d="M15.4241 3.15411L16.3522 1.75183L17.2871 2.37062L16.359 3.7729L15.4241 3.15411Z" fill="#2EBDEE"/>
<path d="M6.41333 0.217651L7.5131 9.09364e-05L7.83943 1.64971L6.73966 1.86727L6.41333 0.217651Z" fill="#2EBDEE"/>
<path d="M1.74609 2.37219L2.68109 1.75357L3.60899 3.15601L2.674 3.77463L1.74609 2.37219Z" fill="#2EBDEE"/>
<path d="M6.41431 16.5638L6.74064 14.9142L7.84041 15.1318L7.51407 16.7814L6.41431 16.5638Z" fill="#2EBDEE"/>
<path d="M1.74731 14.4067L2.67546 13.0045L3.61035 13.6232L2.6822 15.0255L1.74731 14.4067Z" fill="#2EBDEE"/>
<path d="M11.1968 15.1209L12.2965 14.9034L12.6229 16.553L11.5231 16.7705L11.1968 15.1209Z" fill="#2EBDEE"/>
<path d="M15.4258 13.6228L16.3608 13.0042L17.2887 14.4066L16.3537 15.0252L15.4258 13.6228Z" fill="#2EBDEE"/>
</svg>
