<svg width="13" height="17" viewBox="0 0 13 17" fill="none" xmlns="http://www.w3.org/2000/svg">
<path d="M12.4574 11.731L11.2966 10.3388C10.9506 9.92713 10.4835 9.69503 9.99615 9.69255C9.50876 9.69006 9.04008 9.91738 8.69115 10.3255C8.50497 10.5501 8.25934 10.6898 7.99654 10.7206C7.73374 10.7515 7.47019 10.6715 7.25124 10.4945C6.38709 9.80278 5.64471 8.91414 5.06631 7.87908C4.9213 7.61356 4.85703 7.29621 4.88432 6.9805C4.91162 6.66479 5.02881 6.37001 5.21616 6.14582C5.55337 5.72695 5.74047 5.16641 5.73741 4.58417C5.73435 4.00194 5.54139 3.44427 5.19981 3.03052L4.03901 1.63835C3.69149 1.22298 3.22085 0.989746 2.73022 0.989746C2.23958 0.989746 1.76895 1.22298 1.42143 1.63835L1.08743 2.03955C-0.653756 4.1278 -0.52343 8.51821 3.0993 12.8605C5.2837 15.481 7.48235 16.5783 9.26522 16.5783C9.79004 16.5992 10.3131 16.4947 10.8039 16.2708C11.2947 16.0469 11.7434 15.708 12.1239 15.274L12.4585 14.8728C12.8054 14.4559 13.0002 13.8907 13 13.3016C12.9998 12.7125 12.8046 12.1476 12.4574 11.731ZM11.7113 13.9781L11.3768 14.3793C10.005 16.0245 6.97687 15.724 3.84432 11.9664C0.711759 8.20877 0.460606 4.57456 1.83245 2.92927L2.16433 2.5287C2.31376 2.35014 2.51611 2.24987 2.72705 2.24987C2.938 2.24987 3.14034 2.35014 3.28977 2.5287L4.45057 3.92088C4.59728 4.09772 4.68056 4.33633 4.68263 4.58578C4.6847 4.83524 4.6054 5.07579 4.46165 5.2561C4.10511 5.68642 3.88271 6.25063 3.83171 6.85419C3.7807 7.45774 3.90418 8.06399 4.18147 8.57136C4.83867 9.75086 5.68377 10.7629 6.66821 11.5493C7.08999 11.882 7.59415 12.0309 8.09649 11.9714C8.59883 11.9118 9.06893 11.6474 9.42826 11.2222C9.57831 11.0477 9.77945 10.9509 9.98842 10.9524C10.1974 10.954 10.3975 11.0538 10.5458 11.2304L11.7066 12.6226C11.7814 12.711 11.8409 12.8163 11.8816 12.9324C11.9224 13.0485 11.9436 13.1732 11.944 13.2991C11.9445 13.4251 11.9241 13.5499 11.8842 13.6665C11.8443 13.783 11.7855 13.8889 11.7113 13.9781Z" fill="#2EBDEE"/>
</svg>
